<svg width="299" height="378" viewBox="0 0 299 378" fill="none" xmlns="http://www.w3.org/2000/svg">
<path d="M299 0.68689L298.988 377.374L0.940828 377.367L0.946676 193.191L0.952788 0.680141L299 0.68689Z" fill="#D9D9D9"/>
<path d="M1 262C11.8739 262 22.3024 266.636 29.9914 274.887C37.6804 283.139 42 294.33 42 306C42 317.67 37.6804 328.861 29.9914 337.113C22.3024 345.364 11.8739 350 1.00001 350L1 262Z" fill="#EE5CF1"/>
<path d="M0.772161 172.439C24.6428 172.44 48.2799 167.999 70.3338 159.37C92.3877 150.741 112.426 138.093 129.306 122.147C146.186 106.202 159.576 87.2726 168.711 66.4391C177.847 45.6056 182.549 23.2762 182.55 0.725899L0.777613 0.721791L0.772161 172.439Z" fill="#EE5CF1"/>
<circle cx="204" cy="311" r="38" fill="#EE5CF1"/>
<ellipse cx="231.5" cy="105" rx="20.5" ry="19" fill="#EE5CF1"/>
<ellipse cx="119.5" cy="220" rx="9.5" ry="9" fill="#EE5CF1"/>
<path d="M279.903 258.5C279.903 284.734 258.637 306 232.403 306C206.17 306 184.903 284.734 184.903 258.5C184.903 232.266 206.17 211 232.403 211C258.637 211 279.903 232.266 279.903 258.5Z" fill="#EE5CF1"/>
</svg>
